<svg xmlns="http://www.w3.org/2000/svg" version="1.1" xmlns:xlink="http://www.w3.org/1999/xlink" xmlns:svgjs="http://svgjs.dev/svgjs" width="1440" height="560" preserveAspectRatio="none" viewBox="0 0 1440 560"><g mask="url(&quot;#SvgjsMask1221&quot;)" fill="none"><g transform="translate(0, 0)" stroke-linecap="round"><path d="M214 113.185 L214 233.935" stroke-width="17.25" stroke="rgba(117, 117, 117, 1)"></path><path d="M214 259.81 L214 277.06" stroke-width="17.25" stroke="rgba(217, 231, 35, 1)"></path><path d="M214 302.935 L214 446.815" stroke-width="17.25" stroke="rgba(217, 231, 35, 1)"></path><path d="M237 223.495 L237 336.505" stroke-width="17.25" stroke="rgba(217, 231, 35, 1)"></path><path d="M260 241.255 L260 258.505" stroke-width="17.25" stroke="rgba(217, 231, 35, 1)"></path><path d="M260 284.38 L260 318.745" stroke-width="17.25" stroke="rgba(217, 231, 35, 1)"></path><path d="M283 247.325 L283 312.675" stroke-width="17.25" stroke="rgba(117, 117, 117, 1)"></path><path d="M306 106.865 L306 244.865" stroke-width="17.25" stroke="rgba(117, 117, 117, 1)"></path><path d="M306 270.74 L306 453.135" stroke-width="17.25" stroke="rgba(217, 231, 35, 1)"></path><path d="M329 90.715 L329 263.21500000000003" stroke-width="17.25" stroke="rgba(217, 231, 35, 1)"></path><path d="M329 289.09000000000003 L329 392.59000000000003" stroke-width="17.25" stroke="rgba(117, 117, 117, 1)"></path><path d="M329 418.46500000000003 L329 469.285" stroke-width="17.25" stroke="rgba(217, 231, 35, 1)"></path><path d="M352 201.735 L352 236.235" stroke-width="17.25" stroke="rgba(117, 117, 117, 1)"></path><path d="M352 262.11 L352 358.265" stroke-width="17.25" stroke="rgba(217, 231, 35, 1)"></path><path d="M375 138.955 L375 190.705" stroke-width="17.25" stroke="rgba(217, 231, 35, 1)"></path><path d="M375 216.58 L375 302.83000000000004" stroke-width="17.25" stroke="rgba(117, 117, 117, 1)"></path><path d="M375 328.70500000000004 L375 421.045" stroke-width="17.25" stroke="rgba(217, 231, 35, 1)"></path><path d="M398 171.495 L398 240.495" stroke-width="17.25" stroke="rgba(217, 231, 35, 1)"></path><path d="M398 266.37 L398 335.37" stroke-width="17.25" stroke="rgba(117, 117, 117, 1)"></path><path d="M398 361.245 L398 388.505" stroke-width="17.25" stroke="rgba(117, 117, 117, 1)"></path><path d="M421 245.945 L421 314.055" stroke-width="17.25" stroke="rgba(117, 117, 117, 1)"></path><path d="M444 209.435 L444 226.685" stroke-width="17.25" stroke="rgba(217, 231, 35, 1)"></path><path d="M444 252.56 L444 304.31" stroke-width="17.25" stroke="rgba(217, 231, 35, 1)"></path><path d="M444 330.185 L444 350.565" stroke-width="17.25" stroke="rgba(217, 231, 35, 1)"></path><path d="M467 110.705 L467 334.955" stroke-width="17.25" stroke="rgba(117, 117, 117, 1)"></path><path d="M467 360.83 L467 449.295" stroke-width="17.25" stroke="rgba(117, 117, 117, 1)"></path><path d="M490 207.145 L490 241.645" stroke-width="17.25" stroke="rgba(217, 231, 35, 1)"></path><path d="M490 267.52 L490 284.77" stroke-width="17.25" stroke="rgba(217, 231, 35, 1)"></path><path d="M490 310.645 L490 352.855" stroke-width="17.25" stroke="rgba(217, 231, 35, 1)"></path><path d="M513 89.375 L513 313.625" stroke-width="17.25" stroke="rgba(117, 117, 117, 1)"></path><path d="M513 339.5 L513 374" stroke-width="17.25" stroke="rgba(217, 231, 35, 1)"></path><path d="M513 399.875 L513 470.625" stroke-width="17.25" stroke="rgba(217, 231, 35, 1)"></path><path d="M536 98.035 L536 356.78499999999997" stroke-width="17.25" stroke="rgba(117, 117, 117, 1)"></path><path d="M536 382.65999999999997 L536 399.90999999999997" stroke-width="17.25" stroke="rgba(217, 231, 35, 1)"></path><path d="M536 425.78499999999997 L536 461.965" stroke-width="17.25" stroke="rgba(217, 231, 35, 1)"></path><path d="M559 197.675 L559 249.425" stroke-width="17.25" stroke="rgba(117, 117, 117, 1)"></path><path d="M559 275.3 L559 292.55" stroke-width="17.25" stroke="rgba(217, 231, 35, 1)"></path><path d="M559 318.425 L559 362.325" stroke-width="17.25" stroke="rgba(117, 117, 117, 1)"></path><path d="M582 98.965 L582 167.965" stroke-width="17.25" stroke="rgba(117, 117, 117, 1)"></path><path d="M582 193.84 L582 349.09000000000003" stroke-width="17.25" stroke="rgba(217, 231, 35, 1)"></path><path d="M582 374.96500000000003 L582 461.035" stroke-width="17.25" stroke="rgba(117, 117, 117, 1)"></path><path d="M605 184.315 L605 375.685" stroke-width="17.25" stroke="rgba(117, 117, 117, 1)"></path><path d="M628 114.595 L628 390.595" stroke-width="17.25" stroke="rgba(117, 117, 117, 1)"></path><path d="M628 416.47 L628 445.405" stroke-width="17.25" stroke="rgba(117, 117, 117, 1)"></path><path d="M651 218.595 L651 253.095" stroke-width="17.25" stroke="rgba(217, 231, 35, 1)"></path><path d="M651 278.97 L651 296.22" stroke-width="17.25" stroke="rgba(117, 117, 117, 1)"></path><path d="M651 322.095 L651 341.405" stroke-width="17.25" stroke="rgba(117, 117, 117, 1)"></path><path d="M674 264.08500000000004 L674 295.915" stroke-width="17.25" stroke="rgba(217, 231, 35, 1)"></path><path d="M697 217.905 L697 269.655" stroke-width="17.25" stroke="rgba(117, 117, 117, 1)"></path><path d="M697 295.53 L697 342.105" stroke-width="17.25" stroke="rgba(217, 231, 35, 1)"></path><path d="M720 190.005 L720 241.755" stroke-width="17.25" stroke="rgba(217, 231, 35, 1)"></path><path d="M720 267.63 L720 319.38" stroke-width="17.25" stroke="rgba(217, 231, 35, 1)"></path><path d="M720 345.255 L720 369.995" stroke-width="17.25" stroke="rgba(217, 231, 35, 1)"></path><path d="M743 254.155 L743 305.845" stroke-width="17.25" stroke="rgba(217, 231, 35, 1)"></path><path d="M766 220.685 L766 237.935" stroke-width="17.25" stroke="rgba(117, 117, 117, 1)"></path><path d="M766 263.81 L766 281.06" stroke-width="17.25" stroke="rgba(217, 231, 35, 1)"></path><path d="M766 306.935 L766 339.315" stroke-width="17.25" stroke="rgba(117, 117, 117, 1)"></path><path d="M789 169.375 L789 390.625" stroke-width="17.25" stroke="rgba(117, 117, 117, 1)"></path><path d="M812 233.095 L812 267.595" stroke-width="17.25" stroke="rgba(117, 117, 117, 1)"></path><path d="M812 293.47 L812 326.905" stroke-width="17.25" stroke="rgba(117, 117, 117, 1)"></path><path d="M835 105.375 L835 191.625" stroke-width="17.25" stroke="rgba(217, 231, 35, 1)"></path><path d="M835 217.5 L835 355.5" stroke-width="17.25" stroke="rgba(217, 231, 35, 1)"></path><path d="M835 381.375 L835 454.625" stroke-width="17.25" stroke="rgba(217, 231, 35, 1)"></path><path d="M858 237.005 L858 322.995" stroke-width="17.25" stroke="rgba(117, 117, 117, 1)"></path><path d="M881 203.705 L881 289.95500000000004" stroke-width="17.25" stroke="rgba(117, 117, 117, 1)"></path><path d="M881 315.83000000000004 L881 356.295" stroke-width="17.25" stroke="rgba(117, 117, 117, 1)"></path><path d="M904 167.475 L904 201.975" stroke-width="17.25" stroke="rgba(217, 231, 35, 1)"></path><path d="M904 227.85 L904 348.6" stroke-width="17.25" stroke="rgba(117, 117, 117, 1)"></path><path d="M904 374.475 L904 392.525" stroke-width="17.25" stroke="rgba(217, 231, 35, 1)"></path><path d="M927 105.515 L927 157.265" stroke-width="17.25" stroke="rgba(117, 117, 117, 1)"></path><path d="M927 183.14 L927 303.89" stroke-width="17.25" stroke="rgba(217, 231, 35, 1)"></path><path d="M927 329.765 L927 454.485" stroke-width="17.25" stroke="rgba(217, 231, 35, 1)"></path><path d="M950 189.945 L950 258.945" stroke-width="17.25" stroke="rgba(117, 117, 117, 1)"></path><path d="M950 284.82 L950 370.055" stroke-width="17.25" stroke="rgba(217, 231, 35, 1)"></path><path d="M973 226.055 L973 243.305" stroke-width="17.25" stroke="rgba(117, 117, 117, 1)"></path><path d="M973 269.18 L973 286.43" stroke-width="17.25" stroke="rgba(117, 117, 117, 1)"></path><path d="M973 312.305 L973 333.945" stroke-width="17.25" stroke="rgba(117, 117, 117, 1)"></path><path d="M996 119.335 L996 440.665" stroke-width="17.25" stroke="rgba(217, 231, 35, 1)"></path><path d="M1019 223.565 L1019 336.435" stroke-width="17.25" stroke="rgba(117, 117, 117, 1)"></path><path d="M1042 163.385 L1042 284.135" stroke-width="17.25" stroke="rgba(217, 231, 35, 1)"></path><path d="M1042 310.01 L1042 396.615" stroke-width="17.25" stroke="rgba(117, 117, 117, 1)"></path><path d="M1065 137.885 L1065 327.635" stroke-width="17.25" stroke="rgba(117, 117, 117, 1)"></path><path d="M1065 353.51 L1065 370.76" stroke-width="17.25" stroke="rgba(117, 117, 117, 1)"></path><path d="M1065 396.635 L1065 422.115" stroke-width="17.25" stroke="rgba(217, 231, 35, 1)"></path><path d="M1088 166.895 L1088 235.895" stroke-width="17.25" stroke="rgba(217, 231, 35, 1)"></path><path d="M1088 261.77 L1088 393.105" stroke-width="17.25" stroke="rgba(217, 231, 35, 1)"></path><path d="M1111 170.505 L1111 222.255" stroke-width="17.25" stroke="rgba(217, 231, 35, 1)"></path><path d="M1111 248.13 L1111 389.495" stroke-width="17.25" stroke="rgba(117, 117, 117, 1)"></path><path d="M1134 218.915 L1134 236.165" stroke-width="17.25" stroke="rgba(217, 231, 35, 1)"></path><path d="M1134 262.03999999999996 L1134 279.28999999999996" stroke-width="17.25" stroke="rgba(217, 231, 35, 1)"></path><path d="M1134 305.16499999999996 L1134 341.085" stroke-width="17.25" stroke="rgba(217, 231, 35, 1)"></path><path d="M1157 189.995 L1157 241.745" stroke-width="17.25" stroke="rgba(117, 117, 117, 1)"></path><path d="M1157 267.62 L1157 370.005" stroke-width="17.25" stroke="rgba(117, 117, 117, 1)"></path><path d="M1180 183.975 L1180 376.025" stroke-width="17.25" stroke="rgba(117, 117, 117, 1)"></path><path d="M1203 254.005 L1203 306.005" stroke-width="17.25" stroke="rgba(117, 117, 117, 1)"></path><path d="M1226 165.985 L1226 183.235" stroke-width="17.25" stroke="rgba(117, 117, 117, 1)"></path><path d="M1226 209.11 L1226 394.015" stroke-width="17.25" stroke="rgba(217, 231, 35, 1)"></path></g></g><defs><mask id="SvgjsMask1221"><rect width="1440" height="560" fill="#ffffff"></rect></mask></defs></svg>